<?xml version="1.0" encoding="utf-8"?>
<!-- Uploaded to: SVG Repo, www.svgrepo.com, Generator: SVG Repo Mixer Tools -->
<svg width="800px" height="800px" viewBox="0 -73.4 423.662 423.662" xmlns="http://www.w3.org/2000/svg"><defs><style>.a{fill:#ffffff;}.b{fill:#bdbdbd;}.c{fill:#87cce3;}.d{fill:#957f6e;}.e{fill:#211715;}.f{fill:none;}</style></defs><path class="a" d="M178.731,86.184a57.41,57.41,0,0,1-2.514,12.309c-1.755,7.546-4.213,18.015,1.659,23.533a7.193,7.193,0,0,1,2.333,4.031c.655,4.164-3.693,4.038-6.254,5.659-1.69,1.07-2.218,3.463-3.185,5.125-1.285,3.994-4.851,12.787-8.716,16.977a14.8,14.8,0,0,1-9.79,5.182,34.032,34.032,0,0,1-15.25-2.5l-.048.1c-1.761,3.64-1.045,11.425,1.515,15.265,0,0,.037.056.107.157-1.888,3.506-4.85,7.182-9.611,8.471-25.636,6.943-44.188-5.814-53.952-21.64,4.675-.035,9.959-8.981,10.248-17.463a38.062,38.062,0,0,0-.783-9.21,39.064,39.064,0,0,0,26.833-13.139c-4.134-4.829-6.054-11.1-4.9-16.862.583-2.906,2.245-5.957,5.45-6.766a8.281,8.281,0,0,1,6.379,1.286,11.661,11.661,0,0,1,4,4.844c1.214-.262,4.268-.815,4.474-.919a.466.466,0,0,0,.226-.4l.616-3.987a2.191,2.191,0,0,1,.584-1.4c1.081-.987,3.628-.584,5.388-1.032a3.665,3.665,0,0,0,2.572-2.125,9.153,9.153,0,0,0,.464-2.954,38.011,38.011,0,0,1,1.6-8.576,24.332,24.332,0,0,1,1.749-4.315c.324-.607,1.305-2.33,2.484-2.782a23.048,23.048,0,0,1,6.119-.854s7.687.138,17.389-.111c3.015.457,9.773,1.13,12.082,1.355a55.11,55.11,0,0,1,.448,16.031"/><path class="b" d="M74.81,109.948c-3.631-7.556-5.072-19.535-5.264-26.435-.589-21.121,12.395-42.2,33.93-46.751,14.741-12.2,48.989-4.071,65.1,11.881,8.219,8.141,10.914,17.645,10.219,24.885,0,0-9.205-.877-12.872-1.432-9.7.249-17.389.111-17.389.111a23.048,23.048,0,0,0-6.119.854c-1.179.452-2.16,2.175-2.484,2.782a24.332,24.332,0,0,0-1.749,4.315,38.011,38.011,0,0,0-1.6,8.576,9.153,9.153,0,0,1-.464,2.954,3.665,3.665,0,0,1-2.572,2.125c-1.76.448-4.307.045-5.388,1.032a2.191,2.191,0,0,0-.584,1.4l-.616,3.987a.466.466,0,0,1-.226.4c-.206.1-3.26.657-4.474.919a11.661,11.661,0,0,0-4-4.844,8.281,8.281,0,0,0-6.379-1.286c-3.2.809-4.867,3.86-5.45,6.766-1.157,5.76.763,12.033,4.9,16.862a39.1,39.1,0,0,1-26.834,13.145c-2.04-9.824-7.411-17.01-9.679-22.241"/><path class="a" d="M273.03,244.438c-.013-2.211-.025-4.283-.032-6.137l-1.372-.241c-8.107-1.422-11.591-4.491-12.6-5.617-2.116-2.364-5.6-4.866-8.592-5.476-9.866-2.009-27.2-2.88-34.346-1.92-1.4.188-2.7.213-3.911,1.707a3.449,3.449,0,0,0,1.706,5.546l3.666.846a52.168,52.168,0,0,0-8.928,1.146c-1.92.711-2.773,1.422-2.987,2.986-.439,3.223,2.831,4.288,3.912,4.2l2.271-.195-.865.418c-3.094,1.493-3.307,3.733-2.2,5.475a4.949,4.949,0,0,0,3.821,2.088l1.991.793c-1.188.224-1.6,2-1.023,3.136a5.627,5.627,0,0,0,2.855,2.264c6.58,3.094,12.879,2.944,19.91,4.527,1.023.231,4.227,2.676,5.173,3.254a34.308,34.308,0,0,0,8.887,3.9,12.064,12.064,0,0,0,2.491.368c2.481.192,13.369-1.28,19.129-1.706l1.157-.086C273.126,258.745,273.07,250.981,273.03,244.438Z"/><path class="c" d="M334.19,177.719c-4.363,6.879-7.943,12.418-9.895,15.327l-.106-.39c-2.282-8.417-4.644-29.686-5.82-44.892l1.393.663a37.431,37.431,0,0,0,29.39.8l3.447-1.1C346.342,158.4,339.652,169.108,334.19,177.719Z"/><path class="a" d="M366.422,124.759c1.12-1.987,2.12-3.806,2.972-5.415l-1.022-.928a18.045,18.045,0,0,1-3.2-3.84c-1.6-4.084-.782-6.044-.782-7.964l-.066-8.183s0-.089,0-.247a39.578,39.578,0,0,0,4.313-2.669,26.5,26.5,0,0,0,5.777-6.921c2.371-4.239,2.835-6.645,2.653-11.432a14.457,14.457,0,0,0-1.207-4.539,6.228,6.228,0,0,0-4.327-3.19,6.627,6.627,0,0,0-4.88.95l-2.177-1.307c-23.479-.889-54.881-8.1-67.993-21.7-2.4,3.727-11.865,15.112-17.941,18.17a158.764,158.764,0,0,0,5.3,28.144c.859,6.673,8.6,22.753,15.47,28.993a34.475,34.475,0,0,0,18.344,8.433c0,.5,0,.811,0,.811-.153,2.259.139,8.3.722,15.834l1.393.666a37.431,37.431,0,0,0,29.39.8l3.424-1.06C357.819,139.56,362.76,131.26,366.422,124.759Z"/><path class="d" d="M395.552,96.976c-.092-3.21-.326-6.157-1.151-8.141-3-7.194-7.536-12.01-14.076-10.986-1.187,2.568-2.64,5.371-4.415,8.567,0,0-.32.427-.886,1.036-.189.366-.393.745-.614,1.14a28.527,28.527,0,0,1-5.1,6.379,73.377,73.377,0,0,1-4.964,9.746l.048,1.895c0,1.92-.815,3.88.782,7.964a18.045,18.045,0,0,0,3.2,3.84l1.06.857c1.211-2.285,2.121-4.14,2.651-5.444,1.3,1.475,2.645,3.18,3.979,5.022l.132.134c1.578,1.577,3.768,3.536,6.247,5.676,7.317,1.645,15.885-.572,21.061-6.248-2.813-.595-4.81-3.091-6.2-5.616C395.423,109.407,395.718,102.764,395.552,96.976Z"/><path class="d" d="M308.775,56.093a46.937,46.937,0,0,1-12.3-8.717c-2.4,3.727-11.867,15.114-17.942,18.171-.03-.369-.055-.725-.076-1.066-1.287-20.716,4.889-32.149,12.078-41.277,5.779-7.337,19.5-18.09,36.133-20.242,10.141-1.313,26.739-1.1,39.768,9.356A40.467,40.467,0,0,1,380.5,30.238c3.9,10.41,5.73,18.31,4.8,29.3-.753,8.84-2.933,15.26-9.387,26.88l-1.148,1.531c2.066-3.849,2.474-6.248,2.3-10.787a14.457,14.457,0,0,0-1.207-4.539,6.228,6.228,0,0,0-4.327-3.19,6.663,6.663,0,0,0-4.79.885l-2.267-1.242C346.65,68.4,324.263,64.08,308.775,56.093Z"/><path class="e" d="M75.214,157.08a157.077,157.077,0,0,0-23.438,6.457c-8.449,2.943-17.322,6.317-24.523,11.754a18.778,18.778,0,0,0-4.367,4.3,43.411,43.411,0,0,0-3.462,6.2A110.29,110.29,0,0,0,14.1,199.455c-2.576,8.072-4.65,16.328-6.777,24.527C4.7,234.077,2.109,244.207.056,254.436a2.461,2.461,0,0,0,1.677,2.952,2.423,2.423,0,0,0,2.952-1.676c1.77-8.818,3.966-17.556,6.189-26.269,2.2-8.605,4.45-17.2,6.949-25.725,1.129-3.853,2.431-7.65,3.938-11.373a71.445,71.445,0,0,1,3.085-6.68,18.692,18.692,0,0,1,3.334-4.96,26.943,26.943,0,0,1,4.025-3.031c1.75-1.126,3.57-2.141,5.422-3.087A114.284,114.284,0,0,1,50.166,169.2a158.924,158.924,0,0,1,26.324-7.49,2.423,2.423,0,0,0,1.677-2.953,2.454,2.454,0,0,0-2.953-1.676Z"/><path class="e" d="M82.873,141.393a23.778,23.778,0,0,1-2.512,9.523,22.018,22.018,0,0,1-1.166,2.013q-.3.462-.63.905c.214-.289-.091.112-.133.163q-.181.22-.37.434a11.842,11.842,0,0,1-1.381,1.325c.385-.31.026-.024-.065.033-.133.083-.261.172-.4.252a6.813,6.813,0,0,1-.8.4,2.415,2.415,0,0,0-.861,3.284,2.464,2.464,0,0,0,3.284.861c3.02-1.292,5.213-4.425,6.66-7.247a28.819,28.819,0,0,0,3.167-11.945,2.4,2.4,0,1,0-4.8,0Z"/><path class="e" d="M134.894,155.391a16.883,16.883,0,0,0-1.191,8.769,19.8,19.8,0,0,0,2.7,8.919,2.4,2.4,0,0,0,4.145-2.422c-.315-.482-.528-1.013-.823-1.5-.144-.239.14.38-.022-.046-.059-.154-.119-.307-.175-.461-.1-.285-.2-.573-.287-.863a20.352,20.352,0,0,1-.5-2.035c-.062-.316-.106-.634-.165-.95-.054-.286.035.361-.016-.107-.02-.178-.04-.355-.058-.534a20.848,20.848,0,0,1-.027-3.934c.015-.161.035-.321.052-.482-.02.183-.059.364-.006.077s.106-.594.176-.888c.066-.276.142-.55.232-.818.034-.1.073-.2.108-.306.177-.522-.225.487,0,0a2.456,2.456,0,0,0-.861-3.284,2.43,2.43,0,0,0-3.283.861Z"/><path class="e" d="M136.47,169.086c5.749,2.078,11.562,3.974,17.3,6.087,4.156,1.532,8.251,3.126,12.274,4.977,3.375,1.554,6.637,3.286,9.931,5,3.473,1.8,7.092,3.825,9.643,6.86a2.419,2.419,0,0,0,3.394,0,2.452,2.452,0,0,0,0-3.394c-2.507-2.983-6.025-5.133-9.416-6.974-3.1-1.683-6.22-3.339-9.413-4.836a232.088,232.088,0,0,0-22.97-9.045c-3.158-1.089-6.322-2.164-9.465-3.3a2.422,2.422,0,0,0-2.952,1.677,2.45,2.45,0,0,0,1.676,2.952Z"/><path class="e" d="M215.532,221.462c-3.026-3.64-6-7.326-8.976-11a2.409,2.409,0,0,0-3.4,0,2.47,2.47,0,0,0,0,3.394c2.982,3.676,5.951,7.362,8.976,11a2.411,2.411,0,0,0,3.4,0,2.466,2.466,0,0,0,0-3.394Z"/><path class="e" d="M185.19,192.648c4.12,4.12,7.78,8.731,11.472,13.229a2.409,2.409,0,0,0,3.394,0,2.467,2.467,0,0,0,0-3.4c-3.692-4.5-7.352-9.108-11.472-13.228a2.4,2.4,0,0,0-3.394,3.394Z"/><path class="e" d="M170.967,242.851c3.591,3.4,7.067,6.914,10.607,10.362,3.966,3.863,8.083,7.549,12.162,11.291q5.026,4.612,10.067,9.209c2.284,2.07,5.689-1.314,3.394-3.394-9.269-8.4-18.5-16.82-27.421-25.59-1.8-1.766-3.584-3.541-5.415-5.272-2.244-2.122-5.644,1.266-3.394,3.394Z"/><path class="e" d="M306.657,130.657c-3.824,4.9-10.1,7.459-15.613,9.944-6.454,2.91-12.725,6.692-16.259,13.044-3.707,6.664-5.442,14.188-7.248,21.529-1.586,6.445-3.186,12.93-4.29,19.478-.7,4.164-1.638,8.211-2.718,12.3-.79,2.99,3.839,4.265,4.629,1.276a111.118,111.118,0,0,0,2.53-11.142c.9-5.694,2.25-11.322,3.581-16.925,1.713-7.215,3.213-14.745,6.351-21.506a22.091,22.091,0,0,1,5.625-7.883,38.361,38.361,0,0,1,8.946-5.449c6.266-2.874,13.487-5.663,17.861-11.271a2.48,2.48,0,0,0,0-3.394,2.416,2.416,0,0,0-3.4,0Z"/><path class="e" d="M169.909,236.46c-1.1,11.627-1.876,23.284-2.916,34.916a2.418,2.418,0,0,0,2.4,2.4,2.45,2.45,0,0,0,2.4-2.4c1.04-11.632,1.817-23.289,2.916-34.916a2.417,2.417,0,0,0-2.4-2.4,2.453,2.453,0,0,0-2.4,2.4Z"/><path class="e" d="M34.452,218.7c1.44,12.541,2.377,25.14,3.275,37.729q.51,7.154.981,14.308a2.457,2.457,0,0,0,2.4,2.4,2.421,2.421,0,0,0,2.4-2.4c-.954-14.384-1.94-28.772-3.321-43.122q-.43-4.461-.935-8.915a2.473,2.473,0,0,0-2.4-2.4,2.415,2.415,0,0,0-2.4,2.4Z"/><path class="e" d="M73.582,161.062a52.641,52.641,0,0,0,23.476,20.207,46.47,46.47,0,0,0,16.71,3.549,53.379,53.379,0,0,0,9.614-.677,31.8,31.8,0,0,0,9.12-2.443c5.29-2.592,8.293-8.012,10.309-13.293a2.419,2.419,0,0,0-1.676-2.952,2.455,2.455,0,0,0-2.953,1.676c-1.316,3.449-3.417,7.578-6.917,9.765-2.348,1.467-5.251,1.936-7.936,2.415a47.469,47.469,0,0,1-8.431.725,42.3,42.3,0,0,1-26.921-9.793,51.764,51.764,0,0,1-10.251-11.6c-1.676-2.581-5.834-.178-4.144,2.423Z"/><path class="e" d="M184.362,185.626a60.5,60.5,0,0,0-5.947,8.1,43.858,43.858,0,0,0-4.094,11.11c-1.95,7.659-2.763,15.538-3.655,23.374a2.415,2.415,0,0,0,2.4,2.4,2.458,2.458,0,0,0,2.4-2.4c.827-7.267,1.6-14.55,3.374-21.661a40.736,40.736,0,0,1,3.522-10.05,51.107,51.107,0,0,1,5.4-7.481,2.47,2.47,0,0,0,0-3.394,2.418,2.418,0,0,0-3.4,0Z"/><path class="e" d="M361.99,106.612c-.006.806-.132,1.6-.182,2.407a14.135,14.135,0,0,0,.271,3.583,10.342,10.342,0,0,0,1.458,3.94,32.835,32.835,0,0,0,3.138,3.571,2.422,2.422,0,0,0,3.394,0,2.448,2.448,0,0,0,0-3.394c-.5-.529-1.013-1.055-1.508-1.594-.218-.236-.433-.474-.641-.718a2.98,2.98,0,0,0-.331-.4c.09.069.264.371.092.113-.122-.184-.235-.368-.347-.557-.2-.334.21.605-.01-.055-.046-.138-.1-.275-.144-.413a13.974,13.974,0,0,1-.5-1.938c-.024-.134-.034-.278-.066-.41.053.216.047.468.021.1-.017-.241-.037-.48-.044-.721-.011-.428,0-.856.035-1.283.054-.743.164-1.482.169-2.227a2.4,2.4,0,0,0-4.8,0Z"/><path class="e" d="M315.247,131.927a64.527,64.527,0,0,0,.166,7.552c.229,4.231.553,8.457.914,12.678.839,9.781,1.868,19.559,3.306,29.272a104.656,104.656,0,0,0,2.242,11.865c.8,2.98,5.433,1.716,4.628-1.276-2.1-7.82-2.865-15.8-3.768-23.722-1.042-9.135-1.9-18.3-2.446-27.481a72.857,72.857,0,0,1-.242-8.888,2.4,2.4,0,0,0-4.8,0Z"/><path class="e" d="M310.261,131.226c-3.317,3.176-6.512,6.481-9.671,9.813a2.466,2.466,0,0,0-.375,2.908c1.584,2.828,2.938,5.8,4.693,8.534l.375-2.909c-3.332,3.088-6.877,6.009-10.418,8.854a2.331,2.331,0,0,0-.617,2.335c2.134,6.132,4.3,12.221,6.7,18.255q3.12,7.838,6.208,15.687.721,1.832,1.442,3.664l4.629-1.276-.093-.237a2.473,2.473,0,0,0-2.953-1.677,2.418,2.418,0,0,0-1.676,2.953l.093.237a2.473,2.473,0,0,0,2.953,1.676,2.418,2.418,0,0,0,1.676-2.952c-3.609-9.2-7.453-18.321-10.871-27.59-1.224-3.317-2.318-6.677-3.48-10.016l-.617,2.335c3.54-2.845,7.085-5.766,10.417-8.854a2.423,2.423,0,0,0,.376-2.908c-1.755-2.73-3.109-5.7-4.694-8.533l-.375,2.908c3.159-3.332,6.354-6.637,9.671-9.813,2.236-2.141-1.162-5.532-3.394-3.394Z"/><path class="e" d="M369.768,113.191c-.18.442.253-.561-.028.065-.1.22-.2.441-.3.66-.224.485-.456.965-.693,1.444-.586,1.185-1.2,2.357-1.827,3.522-1.674,3.121-3.428,6.2-5.2,9.265-4.581,7.914-9.322,15.735-14.105,23.528q-7.312,11.911-14.793,23.718c-3.4,5.363-6.793,10.731-10.317,16.012-2.552,3.824-5.375,7.564-6.429,12.138a33.441,33.441,0,0,0-.524,8.377c.1,3.68.414,7.355.771,11.018.195,2,.409,3.991.63,5.985a2.471,2.471,0,0,0,2.4,2.4,2.417,2.417,0,0,0,2.4-2.4c-.784-7.076-1.762-14.335-1.368-21.468a17.123,17.123,0,0,1,2.185-7.368c1.049-1.909,2.332-3.669,3.55-5.47,3.3-4.878,6.442-9.864,9.6-14.835q7.375-11.612,14.591-23.327c4.853-7.879,9.661-15.787,14.329-23.777a185.173,185.173,0,0,0,9.043-16.549c.25-.549.486-1.1.714-1.662a2.416,2.416,0,0,0-1.676-2.952,2.461,2.461,0,0,0-2.953,1.676Z"/><path class="e" d="M370.385,115.526a77.406,77.406,0,0,1,7.418,10.233,78.983,78.983,0,0,1,5.939,11.215l.617-2.335c-5.085,4.446-10.433,8.58-15.618,12.906a2.409,2.409,0,0,0,0,3.394,34.317,34.317,0,0,1,4.66,5.178c.65.837,1.3,1.716,1.9,2.6.218.319.436.639.635.969.07.116.13.249.21.36.033.061.065.122.1.185a2.032,2.032,0,0,1-.18-1.6l.617-1.059q-6.13,7.074-12.35,14.068c-6.781,7.642-13.605,15.254-20.649,22.656-2.9,3.044-5.809,6.106-8.957,8.894-2.317,2.052,1.088,5.437,3.394,3.394,3.513-3.11,6.745-6.55,9.965-9.956,4.3-4.555,8.526-9.188,12.719-13.846q9.5-10.551,18.8-21.277c.736-.847,1.4-1.726,1.092-2.934a9.509,9.509,0,0,0-1.658-2.862,43.917,43.917,0,0,0-6.9-8.164v3.394c5.186-4.326,10.533-8.46,15.618-12.906a2.32,2.32,0,0,0,.617-2.335,86.566,86.566,0,0,0-14.59-23.566c-2.039-2.328-5.423,1.078-3.395,3.394Z"/><path class="e" d="M175.939,75.734a57.983,57.983,0,0,1,.493,6.656,55.839,55.839,0,0,1-.382,7.092,2.4,2.4,0,0,0,2.4,2.4,2.471,2.471,0,0,0,2.4-2.4,58.9,58.9,0,0,0-.282-15.024,2.407,2.407,0,0,0-2.953-1.677,2.478,2.478,0,0,0-1.676,2.953Z"/><path class="e" d="M72.738,111.159c1.872,4.267,4.464,8.184,6.393,12.431a39.932,39.932,0,0,1,3.742,17.8c-.1,3.09,4.7,3.086,4.8,0a44.969,44.969,0,0,0-4.122-19.61c-1.973-4.478-4.7-8.573-6.669-13.047a2.416,2.416,0,0,0-3.283-.861,2.46,2.46,0,0,0-.861,3.284Z"/><path class="e" d="M124.329,100.335c-1.675-3.455-4.667-6.421-8.519-7.246A9.2,9.2,0,0,0,106.1,96.8c-3.923,5.49-2.649,13.611.28,19.215a25.992,25.992,0,0,0,7.977,8.966,2.419,2.419,0,0,0,3.284-.861,2.452,2.452,0,0,0-.861-3.283c-5.228-3.763-8.728-10.079-8.234-16.6.19-2.5,1.195-5.847,3.971-6.507,3.5-.833,6.3,2.207,7.671,5.027a2.421,2.421,0,0,0,3.283.861,2.449,2.449,0,0,0,.861-3.283Z"/><path class="e" d="M167.844,140.742a32.449,32.449,0,0,1-3.78-1.329l.573.242a15.874,15.874,0,0,1-3.264-1.675,2.409,2.409,0,0,0-1.849-.242,2.4,2.4,0,0,0-1.676,2.952,2.775,2.775,0,0,0,1.1,1.434,14.073,14.073,0,0,0,2.652,1.411,36.318,36.318,0,0,0,4.965,1.835,2.4,2.4,0,1,0,1.276-4.628Z"/><path class="e" d="M166.429,110.953c.179,2.125-1.138,6.657-4.819,6.307-4.755-1.012-3.878-6.639-1.743-8.929C161.614,106.455,165.653,106.358,166.429,110.953Z"/><path class="e" d="M176.331,86.184c-.392,4.351-1.67,8.389-2.647,12.616a70.28,70.28,0,0,0-1.819,10.639,21.166,21.166,0,0,0,1.543,10.424A14.9,14.9,0,0,0,176.464,124a5.089,5.089,0,0,1,1.253,1.923,3.053,3.053,0,0,1,.156.917c0,.008-.157.582-.048.367-.022.044-.231.274-.071.123.2-.187-.148.136-.195.164-.22.135-.014,0,.031-.028a3.769,3.769,0,0,1-.407.243,10.121,10.121,0,0,1-1.532.64,10.391,10.391,0,0,0-4.148,2.3c-2.182,2.316-3.055,5.805-4.177,8.705a58.9,58.9,0,0,1-4.533,9.388c-1.8,2.951-4.181,5.741-7.459,7.075-3.335,1.358-7.355,1.02-10.817.384-3.727-.685-7.761-1.866-10.76-4.288a2.473,2.473,0,0,0-3.4,0,2.419,2.419,0,0,0,0,3.394,27.333,27.333,0,0,0,10.67,5.045,33.567,33.567,0,0,0,11.391,1.026c8.661-.893,13.748-7.939,17.186-15.25,1.39-2.953,2.5-6.4,3.759-9.12.661-1.431,1.076-2.922,2.568-3.643.821-.4,2.563-.9,3.67-1.515,3.734-2.066,3.746-6.659,1.408-9.861-1.09-1.493-2.521-2.564-3.326-4.267a12.29,12.29,0,0,1-1.045-4.3,41.19,41.19,0,0,1,1.372-12.055c.55-2.448,1.326-4.83,1.881-7.277a60.274,60.274,0,0,0,1.235-7.915,2.418,2.418,0,0,0-2.4-2.4,2.45,2.45,0,0,0-2.4,2.4Z"/><path class="e" d="M154.185,131.149a5.844,5.844,0,0,0-2.255.04,5.556,5.556,0,0,0-1.517.609,6.405,6.405,0,0,0-2.328,2.435c-.405.688-.859,1.344-1.275,2.024a17.305,17.305,0,0,0-1.4,2.911,2.413,2.413,0,0,0,.242,1.849,2.4,2.4,0,0,0,3.283.861,2.727,2.727,0,0,0,1.1-1.434q.084-.22.174-.44l-.242.574a16.079,16.079,0,0,1,1.313-2.425c.222-.347.448-.691.666-1.04.234-.375.433-.779.7-1.132l-.375.485a3.8,3.8,0,0,1,.656-.642l-.486.375a3.981,3.981,0,0,1,.808-.459l-.574.242a3.466,3.466,0,0,1,.793-.211l-.638.085a3.027,3.027,0,0,1,.624,0l-.638-.086.088.012a2.655,2.655,0,0,0,1.849-.242,2.4,2.4,0,0,0,.861-3.284,2.294,2.294,0,0,0-1.434-1.1Z"/><path class="f" d="M79.837,120.974c-6.3-15.3-7.321-29.176-5.2-40.954,4.425-25.465,19.7-37.023,30.779-40.8A61.883,61.883,0,0,1,152.348,41.6c13.134,5.977,29.481,19.448,27.44,43.205"/><path class="e" d="M181.192,73.528c1.346-15.647-10.345-28.434-23.122-35.587-11.393-6.378-25.189-10.329-38.318-9.329-6.488.494-12.867,2.283-17.974,6.453l1.06-.617a44.314,44.314,0,0,0-28.451,21A51.708,51.708,0,0,0,68.066,72.28a61.17,61.17,0,0,0-.492,17.562c.744,7.251,2.024,14.681,5.164,21.317a2.42,2.42,0,0,0,3.283.861,2.452,2.452,0,0,0,.861-3.284c-2.675-5.655-3.784-12.187-4.452-18.362a57.479,57.479,0,0,1,.363-17.331C75.062,61.5,81.529,50.584,91.572,44.187a36.829,36.829,0,0,1,7.868-3.823c1.535-.525,3.139-.792,4.674-1.287,1.238-.4,1.9-1.3,3.069-2.008a29.286,29.286,0,0,1,13.324-3.708c11.288-.671,22.934,2.416,32.936,7.544,10.786,5.53,21.093,14.543,22.849,27.2a24.334,24.334,0,0,1,.1,5.422,2.419,2.419,0,0,0,2.4,2.4,2.45,2.45,0,0,0,2.4-2.4Z"/><path class="e" d="M162.7,70.293a34.01,34.01,0,0,0-7.6-7.532,42.478,42.478,0,0,0-10.557-5.93,2.419,2.419,0,0,0-2.952,1.676,2.454,2.454,0,0,0,1.676,2.952,40.069,40.069,0,0,1,9.193,5.282c.472.356,1.111.873,1.706,1.383q.952.817,1.852,1.693c.544.533,1.071,1.085,1.572,1.659.206.237.4.479.6.722s-.214-.307.045.061c.107.153.217.3.323.456a2.461,2.461,0,0,0,3.284.861,2.421,2.421,0,0,0,.861-3.283Z"/><path class="e" d="M172.722,71.738a25.64,25.64,0,0,0-3.59-8.684,23.959,23.959,0,0,0-6.88-6.722,2.419,2.419,0,0,0-3.284.861,2.455,2.455,0,0,0,.861,3.284c.293.191.583.386.867.589.169.12.334.244.5.367-.181-.133-.173-.137,0,0,.548.447,1.079.911,1.583,1.408q.708.7,1.343,1.46c.106.127.207.256.311.383-.35-.426.06.085.1.143q.291.4.562.811.546.829,1.008,1.709.234.444.448.9c.071.152.136.308.209.46.124.256-.133-.344.037.082a27.691,27.691,0,0,1,1.295,4.224,2.418,2.418,0,0,0,2.952,1.676,2.454,2.454,0,0,0,1.676-2.952Z"/><path class="e" d="M108.28,118.806a36.943,36.943,0,0,1-21.574,10.787,2.476,2.476,0,0,0-2.4,2.4,2.415,2.415,0,0,0,2.4,2.4A42.169,42.169,0,0,0,111.674,122.2c2.168-2.2-1.224-5.6-3.394-3.394Z"/><path class="e" d="M368.137,10.621C358.971,3.345,347.586.115,335.983,0A60.183,60.183,0,0,0,304.439,8.39a59.339,59.339,0,0,0-19.754,18.852,56.391,56.391,0,0,0-8.7,28.028,94.39,94.39,0,0,0,1.226,19.118,156.116,156.116,0,0,0,4.469,20.488c.87,2.957,5.5,1.7,4.629-1.276a154.708,154.708,0,0,1-4.027-17.744,102.106,102.106,0,0,1-1.58-15.263c-.177-9.782,1.554-19.5,6.382-28.054a52.242,52.242,0,0,1,16.076-17.632A55.368,55.368,0,0,1,332.031,4.883c11.506-.572,23.519,1.834,32.711,9.132a2.476,2.476,0,0,0,3.395,0,2.418,2.418,0,0,0,0-3.394Z"/><path class="e" d="M296.355,82.625c1.073,2.041,1.845,7.109-1.6,8.313-4.686,1-6.321-4.976-5.4-8.157C290.115,80.176,293.685,78.376,296.355,82.625Z"/><path class="a" d="M326.341,131.216c15.5-1.849,28.8-12.886,29.658-17.28,1-5.12-7.04-16.213-9.813-20.907l-1.13-1.474c-6.358,1.93-27.556,4.886-35.142,4.674-11.5-.321-19.841-.643-26-2.01,1.173,6.947,8.7,22.38,15.395,28.464a34.9,34.9,0,0,0,27.035,8.533"/><path class="e" d="M327.624,81.314c1.218,2.2,2,7.7-2.1,9.105-5.572,1.208-7.353-5.263-6.178-8.755C320.3,78.805,324.575,76.75,327.624,81.314Z"/><path class="e" d="M281.786,95.8a55.072,55.072,0,0,0,4.1,11,75.9,75.9,0,0,0,6.745,11.713,35.451,35.451,0,0,0,9.382,9.284,36.8,36.8,0,0,0,13.077,5.3,34.862,34.862,0,0,0,11.886.426,2.416,2.416,0,0,0,1.676-2.952A2.461,2.461,0,0,0,325.7,128.9c-.447.066-.026,0,.055-.006-.173.02-.346.04-.519.057q-.444.043-.888.07c-.788.049-1.579.063-2.369.048a31.4,31.4,0,0,1-4.654-.419,33.575,33.575,0,0,1-11.539-4.149c-7.118-4.224-11.47-11.414-15.053-18.663a52.144,52.144,0,0,1-4.321-11.315c-.689-3.01-5.318-1.736-4.629,1.276Z"/><path class="e" d="M367.4,72.789a4.129,4.129,0,0,1,6.732,1.99,15.124,15.124,0,0,1-.04,8.761c-1.746,5.667-6.551,11.022-11.976,13.04a2.466,2.466,0,0,0-1.676,2.952,2.419,2.419,0,0,0,2.952,1.676,25.911,25.911,0,0,0,13.876-12.873A20.645,20.645,0,0,0,379.5,79c.015-3.277-.574-7.1-3-9.523a8.971,8.971,0,0,0-11.525-.827,2.478,2.478,0,0,0-.861,3.283,2.416,2.416,0,0,0,3.284.861Z"/><path class="e" d="M294.407,46.165c-.372.574-.77,1.13-1.176,1.679-.134.182-.271.361-.406.542l-.216.283q.284-.366.035-.046-.428.544-.861,1.086-2.211,2.742-4.61,5.326a71.99,71.99,0,0,1-5.2,5.12c-.425.373-.856.74-1.295,1.1-.068.056-.77.6-.362.292q-.288.22-.582.433a18.459,18.459,0,0,1-2.439,1.514,2.4,2.4,0,0,0,2.423,4.145c4.179-2.124,7.7-5.811,10.85-9.206a73.7,73.7,0,0,0,7.984-9.842,2.4,2.4,0,1,0-4.144-2.422Z"/><path class="e" d="M294.782,49.073c6.274,6.447,14.747,10.49,23.075,13.573A144.159,144.159,0,0,0,347.586,69.9a166.138,166.138,0,0,0,16.886,1.574c3.089.121,3.084-4.679,0-4.8a158.542,158.542,0,0,1-28.766-3.815c-9.215-2.085-18.438-4.908-26.788-9.4a43.335,43.335,0,0,1-10.742-7.778c-2.158-2.218-5.551,1.178-3.394,3.394Z"/><path class="e" d="M346.973,93.6c3.072-4.178,6.206-8.312,9.626-12.215,3.436-3.921,7.144-7.59,10.91-11.193,2.237-2.139-1.16-5.53-3.394-3.394-3.844,3.677-7.626,7.424-11.123,11.437-3.606,4.136-6.914,8.523-10.164,12.942a2.419,2.419,0,0,0,.861,3.284,2.457,2.457,0,0,0,3.284-.861Z"/><path class="e" d="M374.5,120.682c6.922,6.887,14.842,12.754,22.154,19.211a124.783,124.783,0,0,1,10.638,10.665c3.49,3.924,7.38,8.151,9.659,12.937,2.863,6.013,2.13,13.419.737,19.7-.667,3.01,3.959,4.3,4.628,1.276,1.429-6.448,2.068-13.43.157-19.855-1.632-5.486-5.509-10.069-9.126-14.38a125.942,125.942,0,0,0-11.264-11.915c-3.886-3.563-7.96-6.922-11.994-10.316-4.134-3.478-8.361-6.908-12.194-10.722-2.193-2.182-5.588,1.211-3.395,3.394Z"/><path class="e" d="M276.432,193.249a189.962,189.962,0,0,1,3.409,20.328c.418,3.488.524,7,1.469,10.4.914,3.292,1.952,6.6,3.018,9.847.959,2.922,5.6,1.671,4.629-1.276-1.066-3.247-2.106-6.555-3.018-9.847s-.971-6.689-1.415-10.06c-.912-6.917-1.886-13.871-3.464-20.671-.7-3.008-5.327-1.734-4.628,1.276Z"/><path class="e" d="M409.043,217.474a87.094,87.094,0,0,0,.714,9.308c.459,3.95.814,7.93,1.41,11.861,1.021,6.739,3.253,13.149,5.171,19.661.871,2.956,5.5,1.7,4.628-1.277-1.876-6.37-4.053-12.639-5.1-19.222-.581-3.645-.88-7.356-1.306-11.023a87.094,87.094,0,0,1-.714-9.308c-.026-3.087-4.826-3.095-4.8,0Z"/><path class="e" d="M318.55,150.5a40.041,40.041,0,0,0,31.24,1.04,2.472,2.472,0,0,0,1.676-2.952,2.416,2.416,0,0,0-2.952-1.676,35.328,35.328,0,0,1-27.541-.557,2.473,2.473,0,0,0-3.284.861,2.421,2.421,0,0,0,.861,3.284Z"/><path class="e" d="M417.685,183.2c-2.713,13.666-6.437,27.208-12.281,39.891a141.229,141.229,0,0,1-9.893,17.9,92.12,92.12,0,0,1-13.7,17.153,36.887,36.887,0,0,1-7.11,5.349,33.178,33.178,0,0,1-7.708,2.9,137.587,137.587,0,0,1-18.785,3.68,292.943,292.943,0,0,1-39.641,1.972c-10.811-.082-21.607-.607-32.414-.822q-1.509-.03-3.02-.043l2.4,2.4c.062-13.037-.138-26.073-.142-39.111l-2.4,2.4c15.7-.58,31.388-1.272,47.09-1.691,4.045-.108,8.091-.156,12.135-.276a45.887,45.887,0,0,0,10.386-1.02c4.02-1.077,7.587-4.552,10.166-7.671,2.9-3.506,5.637-7.155,8.287-10.852,6.251-8.723,12.011-17.787,18.115-26.612a2.421,2.421,0,0,0-.861-3.283,2.447,2.447,0,0,0-3.283.861c-5.362,7.751-10.471,15.674-15.855,23.409-2.446,3.513-4.958,6.983-7.6,10.348-2.626,3.337-5.415,6.883-9.3,8.823a12.319,12.319,0,0,1-3.59.8c-1.764.189-3.537.287-5.309.355-3.672.14-7.35.164-11.023.257-8.96.224-17.918.532-26.875.87-7.494.282-14.987.6-22.481.879a2.442,2.442,0,0,0-2.4,2.4c0,13.038.2,26.074.142,39.111a2.435,2.435,0,0,0,2.4,2.4c10.472.079,20.937.662,31.408.819a321.308,321.308,0,0,0,40.187-1.509,161.939,161.939,0,0,0,20-3.358,61.727,61.727,0,0,0,8.753-2.561,34.307,34.307,0,0,0,8.171-4.8c5.821-4.515,10.507-10.352,14.737-16.335a144.369,144.369,0,0,0,10.946-18.127,168.974,168.974,0,0,0,13.818-40.047q.615-2.787,1.167-5.588a2.461,2.461,0,0,0-1.676-2.952,2.423,2.423,0,0,0-2.952,1.676Z"/><path class="e" d="M283.358,96.553a87.55,87.55,0,0,0,13.488,1.584c5.045.288,10.166.63,15.219.482a178.172,178.172,0,0,0,24.418-2.808,59.661,59.661,0,0,0,9.909-2.174,2.461,2.461,0,0,0,1.676-2.952,2.421,2.421,0,0,0-2.952-1.677,52.383,52.383,0,0,1-8.214,1.88c-4.011.719-8.046,1.314-12.088,1.812-3.817.47-7.65.884-11.493,1.069-4.691.227-9.429-.09-14.115-.31a88.47,88.47,0,0,1-14.572-1.535c-3.011-.651-4.3,3.975-1.276,4.629Z"/><path class="e" d="M344.113,94.241c1.8,3.033,3.8,5.945,5.58,9a49.87,49.87,0,0,1,2.83,5.443,20.963,20.963,0,0,1,.72,1.974c.113.371.217.744.3,1.122.035.158.065.317.095.476.108.588,0-.251.029.269a7.9,7.9,0,0,1,0,.936c-.026.363.118-.434,0-.043a2.452,2.452,0,0,1-.067.241c-.256.581.249-.353-.056.147-.16.261-.291.536-.457.794-.136.212-.282.417-.43.62-.262.358-.055.068,0,0-.113.141-.228.279-.345.416-.5.58-1.024,1.13-1.572,1.659a41.371,41.371,0,0,1-9.351,6.584,43.865,43.865,0,0,1-15.042,4.943,2.476,2.476,0,0,0-2.4,2.4,2.413,2.413,0,0,0,2.4,2.4,50.136,50.136,0,0,0,26.9-12.114c2.042-1.825,4.511-4.221,5.085-7.022.792-3.861-1.443-8.074-3.2-11.356-2.084-3.9-4.618-7.513-6.873-11.306-1.577-2.653-5.729-.241-4.145,2.423Z"/><path class="e" d="M298.523,47.376c-.27-2.242-.581-4.48-.871-6.72a2.633,2.633,0,0,0-.7-1.7,2.4,2.4,0,0,0-3.394,0,2.3,2.3,0,0,0-.7,1.7c.29,2.24.6,4.478.871,6.72a2.625,2.625,0,0,0,.7,1.7,2.4,2.4,0,0,0,3.394,0,2.3,2.3,0,0,0,.7-1.7Z"/><path class="e" d="M365.228,14.391A36.716,36.716,0,0,1,375.686,25.84c2.792,4.659,4.479,10.044,5.806,15.284a53.367,53.367,0,0,1-.555,28.625,83.587,83.587,0,0,1-7.1,15.456c-1.5,2.7,2.646,5.128,4.144,2.422a95.448,95.448,0,0,0,7.181-15.367,53.952,53.952,0,0,0,2.572-13.193,58.974,58.974,0,0,0-1.276-17.821,65.236,65.236,0,0,0-5.825-16.424,42.185,42.185,0,0,0-12.983-14.576c-2.555-1.751-4.958,2.407-2.423,4.145Z"/><path class="e" d="M381.316,80.138c3.091-.166,5.508,1.26,7.5,3.677a18.392,18.392,0,0,1,4,8.44c.98,6.118-.408,13.172,1.446,19.4,1.188,3.991,4.435,8.055,8.6,9.069l-1.059-4.011a20.094,20.094,0,0,1-18.718,5.632c-3.012-.648-4.3,3.978-1.276,4.629,8.3,1.788,17.52-.563,23.388-6.867a2.424,2.424,0,0,0-1.059-4.011,6.707,6.707,0,0,1-3.879-3.049,8.714,8.714,0,0,1-1.63-3.7,50.814,50.814,0,0,1-.627-9.8,44.339,44.339,0,0,0-.817-9.876,23.971,23.971,0,0,0-5.306-9.635,13.2,13.2,0,0,0-10.565-4.7c-3.073.165-3.092,4.966,0,4.8Z"/><path class="e" d="M270.036,215.338c-1.443-2.007-3.092-3.882-4.693-5.761-1.989-2.336-4-4.659-6.1-6.893a22.444,22.444,0,0,0-2.656-2.494,2.4,2.4,0,0,0-3.283.861,2.474,2.474,0,0,0,.861,3.284c-.067-.052-.566-.476-.286-.214.058.054.12.1.18.158.156.14.307.284.457.43.365.356.72.723,1.072,1.092.951,1,1.876,2.027,2.793,3.059q3.016,3.4,5.912,6.9.591.715,1.172,1.44c.094.119.6.766.273.344s.074.1.157.218a2.457,2.457,0,0,0,3.284.861,2.429,2.429,0,0,0,.861-3.284Z"/><path class="e" d="M253.418,200.3a100.847,100.847,0,0,1-8.488,7.841,43.132,43.132,0,0,1-9.605,5.528,2.481,2.481,0,0,0-1.676,2.953A2.415,2.415,0,0,0,236.6,218.3a48.018,48.018,0,0,0,10.892-6.121,98.975,98.975,0,0,0,9.319-8.483c2.194-2.18-1.2-5.575-3.394-3.394Z"/><path class="e" d="M366.442,95.587c-3.086,6.808-7.115,13.933-12.993,18.714a2.415,2.415,0,0,0,0,3.394,2.455,2.455,0,0,0,3.394,0,41.325,41.325,0,0,0,8.019-9.317,73.324,73.324,0,0,0,5.725-10.368,2.473,2.473,0,0,0-.861-3.284,2.42,2.42,0,0,0-3.284.861Z"/><path class="e" d="M272.264,235.746a28.2,28.2,0,0,1-8.274-2.616,17.715,17.715,0,0,1-2.252-1.418c.507.378-.256-.222-.381-.336-.2-.181-.387-.371-.574-.565a22.9,22.9,0,0,0-7.942-5.611c-2.6-1.035-5.636-1.247-8.392-1.608a162.729,162.729,0,0,0-17.784-1.308c-2.584-.052-5.174-.049-7.754.105-2.3.137-5.132.135-7.093,1.473a5.957,5.957,0,0,0-.267,9.915c1.53,1.082,3.607,1.279,5.392,1.691,3.006.694,4.29-3.933,1.276-4.628a19.8,19.8,0,0,1-3.7-.854,1.434,1.434,0,0,1-.814-.965c-.047-1.1,1.294-1.416,2.06-1.533a71.871,71.871,0,0,1,13.193-.34,154.3,154.3,0,0,1,15.868,1.3c2.255.313,4.795.506,6.883,1.459a21.191,21.191,0,0,1,5.972,4.6c3.486,3.425,8.625,5.02,13.305,5.868a2.467,2.467,0,0,0,2.952-1.676,2.421,2.421,0,0,0-1.676-2.953Z"/><path class="e" d="M244.034,231.074a134.015,134.015,0,0,0-23.977-.5c-3.433.208-6.888.461-10.287,1.009-2.734.441-5.576,1.721-6.364,4.613a6.1,6.1,0,0,0,4.177,7.363,9.132,9.132,0,0,0,3.776.169q2.912-.215,5.828-.349c4.529-.215,8.974-.186,13.5.027,4.686.22,9.385.4,14.062.771a2.421,2.421,0,0,0,2.4-2.4,2.448,2.448,0,0,0-2.4-2.4c-3.554-.281-7.123-.425-10.683-.606-3.662-.185-7.349-.468-11.018-.4-3.133.06-6.266.205-9.394.4q-1.352.084-2.7.186c-.4.03-.805.056-1.206.1-.3.03-.652-.022-.139.068-.187-.032-.366-.084-.549-.129-.407-.1.175.115-.228-.082a1.435,1.435,0,0,1-.658-.482,1.1,1.1,0,0,1,.083-1.325,5.769,5.769,0,0,1,2.438-.833,82.31,82.31,0,0,1,8.694-.856,135.054,135.054,0,0,1,24.65.456,2.413,2.413,0,0,0,2.4-2.4,2.458,2.458,0,0,0-2.4-2.4Z"/><path class="e" d="M209.74,239.625a6.735,6.735,0,0,0-3.913,4.776,6.013,6.013,0,0,0,1.881,5.237c2.339,2.175,5.1,1.99,8.024,2.006,6.444.037,12.9.248,19.327.75a57.19,57.19,0,0,1,9.191,1.207c3,.709,4.286-3.918,1.276-4.628-5.462-1.289-11.252-1.5-16.836-1.774-5.057-.244-10.13-.4-15.194-.353a2.948,2.948,0,0,1-2.676-.885,1.009,1.009,0,0,1-.275-.621c.062.342.1-.55.009-.235.151-.535.934-.989,1.609-1.336,2.749-1.412.323-5.555-2.423-4.144Z"/><path class="e" d="M213.921,247.738c-2.795.843-3.765,4.186-2.457,6.662,1.348,2.553,4.663,3.674,7.213,4.55,5.353,1.839,11.05,2.017,16.538,3.246,0,0,1.023.322.33.028a3.789,3.789,0,0,1,.385.2c.389.227.773.46,1.15.707.806.527,1.588,1.089,2.38,1.637a31.909,31.909,0,0,0,5.857,3.12,22.359,22.359,0,0,0,7.719,2.023,33.282,33.282,0,0,0,4.3-.245c4.885-.448,9.751-1.1,14.643-1.472a2.459,2.459,0,0,0,2.4-2.4,2.419,2.419,0,0,0-2.4-2.4c-3.888.294-7.761.77-11.639,1.174-2.888.3-6.262,1.022-9.14.3a33.1,33.1,0,0,1-10.7-5.209,12.35,12.35,0,0,0-4.679-2.234c-2.5-.508-5.024-.838-7.541-1.225a48.136,48.136,0,0,1-8.33-1.881,18.332,18.332,0,0,1-3.5-1.54,10.386,10.386,0,0,1-.818-.8c.255.065-.781.488-.433.383,2.95-.889,1.693-5.523-1.276-4.629Z"/><path class="a" d="M202.553,212.945l.163.151c.853-.934,11.665-12.517,18.053-19.692a6.653,6.653,0,0,1-1.5-2.29,7.09,7.09,0,0,1-.113-4.252,4.229,4.229,0,0,1,2.126-2.576l-2.553-2.755C211.048,190.06,196.7,206,196.4,206.407,197.225,207.361,200.662,211.173,202.553,212.945Z"/><path class="a" d="M220.614,174.145a4.407,4.407,0,0,0,.314,3.02,17.874,17.874,0,0,0,7.732,8.318,8.259,8.259,0,0,0,4.572.9c1.167-.314,2.469-1.524,2.3-2.859a10.245,10.245,0,0,0-1.619-4.826l-.33-.49c1.312-1.419,3.232-3.355,3.964-4.28a2.272,2.272,0,0,0,.174-.893.894.894,0,0,0-.314-.582q-1.731-1.855-3.611-3.564a1.065,1.065,0,0,0-.554-.325,1.544,1.544,0,0,0-.919.2c-1.032,1.036-3.372,3.392-4.518,4.679l-.479-.288c-1.539-.926-4.24-1.666-5.451-.757A3.374,3.374,0,0,0,220.614,174.145Z"/><path class="e" d="M234.767,200.224q-3.7-2.443-7.389-4.9c-1.89-1.258-4.449-2.6-5.557-4.433a3.9,3.9,0,0,1-.494-2.582,5.8,5.8,0,0,1,.2-1.06c-.1.3.175-.283.012-.068a2.526,2.526,0,0,1,1.077-.891,1.381,1.381,0,0,1,.775-.069,9.478,9.478,0,0,1,1.666.473c1.065.38,2.262.859,3.144,1.239,2.634,1.136,5.208,2.406,7.812,3.609a2.469,2.469,0,0,0,3.283-.861,2.419,2.419,0,0,0-.861-3.284c-2.731-1.261-5.43-2.6-8.2-3.775-2.818-1.2-6.289-3.043-9.374-1.781a7.075,7.075,0,0,0-3.583,3.2,9.291,9.291,0,0,0-.695,5.17c.477,3.434,3.077,5.713,5.8,7.548,3.305,2.227,6.635,4.417,9.96,6.612a2.4,2.4,0,1,0,2.423-4.144Z"/><path class="e" d="M219.836,176.717q-11.352,12.613-22.694,25.238c-.951,1.064-1.952,2.1-2.813,3.24a2.426,2.426,0,0,0,.376,2.909,85.257,85.257,0,0,0,6.313,6.689,2.435,2.435,0,0,0,3.4,0c6.017-6.566,12.128-13.043,18.053-19.692,2.049-2.3-1.334-5.707-3.394-3.394-5.925,6.649-12.037,13.126-18.054,19.692h3.4a85.259,85.259,0,0,1-6.314-6.689l.375,2.908c-.783,1.037.08-.042.292-.282q.735-.831,1.476-1.657,2.43-2.719,4.868-5.43,6.282-6.994,12.575-13.979l5.545-6.159c2.062-2.291-1.322-5.7-3.394-3.394Z"/><path class="e" d="M236.416,182.507c.89.3,1.8.531,2.691.844.093.033.73.345.352.131a1.923,1.923,0,0,1,.357.215,6.651,6.651,0,0,1,1,1.134c1.3,1.852,2.344,3.944,3.468,5.908,2.4,4.184,4.765,8.387,7.2,12.551,1.557,2.666,5.707.253,4.145-2.423-2.6-4.451-5.127-8.946-7.693-13.417a39.792,39.792,0,0,0-4.088-6.5c-1.646-1.886-3.9-2.306-6.153-3.071a2.4,2.4,0,0,0-1.276,4.628Z"/><path class="e" d="M216.213,210.256a27.768,27.768,0,0,0,1.813,3.233,31.6,31.6,0,0,0,2.651,3.726,2.416,2.416,0,0,0,1.7.7,2.447,2.447,0,0,0,1.7-.7,2.418,2.418,0,0,0,.7-1.7,2.7,2.7,0,0,0-.7-1.7q-.2-.24-.4-.489l.375.485a35.645,35.645,0,0,1-2.122-3.142,26.019,26.019,0,0,1-1.57-2.841,2.41,2.41,0,0,0-1.435-1.1,2.452,2.452,0,0,0-1.849.242,2.417,2.417,0,0,0-1.1,1.434l-.086.638a2.4,2.4,0,0,0,.328,1.212Z"/><path class="e" d="M208.941,205.57a7.959,7.959,0,0,0,3.67,4.85,6.367,6.367,0,0,0,6.987-1.273,9.11,9.11,0,0,0,2.571-6.47,40.074,40.074,0,0,0-.912-7.386,2.41,2.41,0,0,0-2.953-1.677,2.471,2.471,0,0,0-1.676,2.953q.224,1.389.448,2.78.059.359.114.718c.021.138.079.546.033.2.063.479.111.962.134,1.445a11.453,11.453,0,0,1-.013,1.447c0,.071-.091.618-.025.279s-.071.3-.087.373c-.039.163-.082.325-.131.485-.056.182-.209.561-.037.176a6.39,6.39,0,0,1-.589,1.033c.235-.338,0-.013-.138.121-.049.049-.444.385-.175.175s-.231.136-.3.172c-.251.141-.252.207-.013.034a1.89,1.89,0,0,1-.527.162c-.517.164.454.018-.084.017-.163,0-.665.109-.084.045a1.262,1.262,0,0,1-.527-.133l.269.117a1.91,1.91,0,0,1-.2-.111c-.133-.12.376.35-.022-.02-.106-.1-.2-.208-.3-.307-.373-.356.2.324-.071-.078a8.986,8.986,0,0,1-.557-.929l-.077-.156q-.167-.368.043.113c-.055-.015-.134-.388-.148-.433a2.4,2.4,0,0,0-4.629,1.276Z"/><path class="e" d="M229.166,175.53c.755-.9,1.586-1.743,2.4-2.586q.69-.711,1.387-1.416l.6-.609c.087-.087.178-.172.262-.263a1.388,1.388,0,0,0,.1-.1q.2-.2-.314.224l-.347.158c.07-.026.349-.071-.051,0l-.185.027q.385.007-.29-.105c.241.061-.735-.186-.638-.27l.216.2q.54.5,1.067,1,.986.948,1.927,1.938c.088.093.175.195.268.284s.165.277.054.034-.306-1.249-.318-.862c-.006.226.061-.341.051-.32a1.628,1.628,0,0,0-.054.255c0-.018.581-.9.452-.773a4.153,4.153,0,0,0-.269.321c-.4.471-.824.928-1.246,1.383-1.036,1.118-2.1,2.208-3.11,3.353a2.4,2.4,0,0,0,3.394,3.394c1.023-1.163,2.109-2.271,3.161-3.407.488-.528.979-1.056,1.434-1.613a3.611,3.611,0,0,0,.866-1.637,3.723,3.723,0,0,0-.224-2.474,6.39,6.39,0,0,0-1.2-1.473q-.608-.635-1.232-1.252a15.748,15.748,0,0,0-2.656-2.365,3.59,3.59,0,0,0-4.183.622c-.479.466-.943.95-1.411,1.426-1.126,1.146-2.281,2.283-3.313,3.516a2.455,2.455,0,0,0,0,3.4,2.429,2.429,0,0,0,3.394,0Z"/><path class="e" d="M231.84,179.909a7.924,7.924,0,0,1,.48.77c.054.1.377.872.212.423a11.628,11.628,0,0,1,.466,1.583c.044.2.079.407.116.612.1.586-.041-.53-.009-.071a3.731,3.731,0,0,0,.034.694c-.035-.058.076-.493.118-.46a2.914,2.914,0,0,1-.2.345c.278-.455-.442.309,0,0-.083.057-.167.112-.254.163s-.45.2-.151.093-.057.018-.137.022c-.274.014.543.011.085-.02-.243-.016-.49-.019-.734-.033.565.033-.179-.044-.353-.084-.264-.059-.526-.129-.784-.207-.125-.038-.248-.078-.371-.12-.073-.025-.579-.182-.219-.07.311.1,0,0-.084-.043-.1-.052-.2-.1-.3-.159-.3-.161-.586-.335-.871-.514q-.368-.231-.722-.478c-.133-.092-.264-.187-.4-.283-.618-.455.31.276-.267-.215a18.805,18.805,0,0,1-2.552-2.6c.255.32-.195-.27-.278-.39q-.248-.353-.477-.715-.477-.755-.883-1.551-.093-.183-.183-.369c-.053-.111-.165-.508-.064-.116.108.423-.077-.248-.1-.333a2.487,2.487,0,0,1-.123-.544c.064-.04.017.545.032.141a1.954,1.954,0,0,1,.006-.514c.023-.017-.162.615,0,.117.021-.068.181-.552.051-.23-.142.354.061-.147.089-.135.091-.14.062-.114-.086.08l.139-.157c.105-.1.205-.211.32-.3l-.178.146c.182-.095.181-.1,0-.013-.256-.037-.061.032.1,0,.261-.053-.474-.02-.018.015.12.009.259,0,.382,0,.608,0-.457-.116.162.012.31.064.616.133.919.225.1.031.2.063.3.1.064.022.69.287.2.061.292.135.576.279.854.441a2.4,2.4,0,1,0,2.423-4.144,10.86,10.86,0,0,0-4.86-1.492,5.213,5.213,0,0,0-4.7,2.441c-1.9,2.836-.465,6.181,1.19,8.723a19.622,19.622,0,0,0,7.4,6.868c2.9,1.451,6.812,2.024,9.138-.743a5.416,5.416,0,0,0,1.063-4.659,11.327,11.327,0,0,0-1.788-4.732,2.4,2.4,0,1,0-4.145,2.423Z"/><path class="e" d="M196.118,209.446l-4.01,4.87a2.581,2.581,0,0,0-.7,1.7,2.445,2.445,0,0,0,.7,1.7,2.418,2.418,0,0,0,1.7.7,2.347,2.347,0,0,0,1.7-.7l4.011-4.87a2.586,2.586,0,0,0,.7-1.7,2.445,2.445,0,0,0-.7-1.7,2.418,2.418,0,0,0-1.7-.7,2.351,2.351,0,0,0-1.7.7Z"/><path class="e" d="M218.7,172.77a17.021,17.021,0,0,0-4.646.227,7.775,7.775,0,0,0-3.856,2.394,8.3,8.3,0,0,0-2.485,5.241,8.446,8.446,0,0,0,1.259,4.664,7.235,7.235,0,0,0,4.141,3.071,2.415,2.415,0,0,0,2.952-1.676,2.459,2.459,0,0,0-1.676-2.953,4.5,4.5,0,0,0-.57-.212c.589.112.249.108.022-.011-.127-.067-.251-.137-.372-.215-.511-.33.3.3.029.03-.079-.079-.163-.153-.239-.235-.408-.441.23.382.02.036a8.616,8.616,0,0,1-.437-.779c-.041-.086-.08-.173-.118-.26.133.32.164.394.095.222s-.127-.319-.178-.483c-.059-.187-.095-.378-.138-.569-.1-.457.008.535.012.018,0-.215,0-.433,0-.648,0-.532-.133.5,0-.014.02-.081.093-.608.174-.631q-.216.48-.045.128c.04-.075.083-.149.128-.221.111-.186.23-.367.353-.544.07-.1.141-.2.215-.295q-.288.369-.038.063c.284-.3.554-.612.865-.888.065-.059.131-.116.2-.172q.2-.168-.144.1a1.442,1.442,0,0,1,.406-.279c.09-.054.19-.1.279-.152.324-.206-.634.226-.07.035a6.913,6.913,0,0,1,.8-.2c.4-.084-.657.063.014,0,.142-.013.285-.023.428-.031a25.066,25.066,0,0,1,2.629.035,2.416,2.416,0,0,0,2.4-2.4,2.453,2.453,0,0,0-2.4-2.4Z"/><path class="e" d="M206.7,179.4a18.185,18.185,0,0,0-3.415,3.747,10.875,10.875,0,0,0-1.905,4.284,10.371,10.371,0,0,0,.416,4.67,7.124,7.124,0,0,0,3.311,4.26,2.4,2.4,0,1,0,2.423-4.144c-.144-.08-.28-.176-.424-.254-.261-.142.342.354-.016-.027-.082-.086-.166-.171-.248-.257-.37-.394.133.254-.01-.02a3.8,3.8,0,0,0-.237-.383c-.245-.352.072.268-.017,0s-.186-.544-.258-.824c-.079-.307-.143-.618-.2-.929-.015-.089-.059-.6-.034-.192s-.006-.08-.011-.133c-.02-.215-.022-.427-.028-.642-.014-.484-.077,0-.029.068-.042-.058.071-.356.086-.419.064-.263.156-.515.241-.772.142-.428-.125.221.015-.037.077-.143.141-.294.216-.438a13.02,13.02,0,0,1,1.033-1.643c.057-.078.367-.443.071-.1.09-.106.176-.217.266-.323q.336-.4.7-.772a15.6,15.6,0,0,1,1.45-1.33,2.408,2.408,0,0,0,0-3.394,2.469,2.469,0,0,0-3.395,0Z"/><path class="e" d="M148.531,69.807a21.416,21.416,0,0,0-5.9.678,6.821,6.821,0,0,0-3.954,2.828c-2.27,3.145-3.347,7.359-3.981,11.129-.188,1.119-.338,2.247-.443,3.377a10.012,10.012,0,0,1-.308,2.826c-.5,1.181-2.114.987-3.175,1.069-1.884.145-3.861.488-4.945,2.23-1.033,1.66-.763,4.029-1.242,5.871l.617-1.059-.168.174,1.059-.617a34.119,34.119,0,0,1-4.474.919c-3.021.639-1.742,5.267,1.276,4.628,1.384-.292,2.817-.466,4.182-.839,2.434-.665,2.354-3.185,2.673-5.253.027-.173.209-1.332.1-1.226-.28.285.459,0,.535-.007.709-.1,1.448-.076,2.163-.152a6.72,6.72,0,0,0,5.507-3.208c1.157-2.08.847-4.716,1.194-7a35.813,35.813,0,0,1,1.681-6.7c.467-1.3,1.184-3.44,2.421-4.211-.324.2.434-.114.554-.145.44-.115.886-.208,1.333-.29a15.957,15.957,0,0,1,3.289-.217c3.09.079,3.088-4.721,0-4.8Z"/></svg>