<svg xmlns="http://www.w3.org/2000/svg" viewBox="0 0 48 60" x="0px" y="0px"><path d="M43.29,13.91c0-.12-.03-.24-.07-.34-.01-.03-.02-.06-.04-.09-.04-.09-.09-.16-.16-.23-.01-.02-.02-.03-.04-.05-.07-.07-.15-.13-.24-.17l-15.32-7.92c-.29-.15-.63-.15-.92,0l-15.32,7.92c-.33,.17-.54,.51-.54,.89,0,.06,.02,7.11,.02,7.11,0,.55,.45,1,1,1s1-.45,1-1v-5.45l13.29,6.87v16.52l-4.96-2.53-1.48-1.48h1.59c.55,0,1-.45,1-1s-.45-1-1-1h-1.59l1.23-1.23c.38-.38,.38-.98,.03-1.37-.02-.54-.45-.97-.99-.97h-1.76s1.13-1.13,1.13-1.13c.39-.39,.39-1.02,0-1.41s-1.02-.39-1.41,0l-1.12,1.12v-1.74c0-.53-.42-.96-.95-.99-.39-.37-1-.36-1.39,.02l-1.24,1.24v-1.59c0-.55-.45-1-1-1s-1,.45-1,1v1.59l-1.23-1.23c-.38-.38-.98-.38-1.37-.03-.54,.02-.97,.45-.97,.99v1.76s-1.13-1.13-1.13-1.13c-.39-.39-1.02-.39-1.41,0s-.39,1.02,0,1.41l1.12,1.12h-1.74c-.53,0-.96,.42-.99,.95-.37,.39-.36,1,.02,1.39l1.24,1.24h-1.59c-.55,0-1,.45-1,1s.45,1,1,1h1.59l-1.23,1.23c-.38,.38-.38,.98-.03,1.37,.02,.54,.45,.97,.99,.97h1.76s-1.13,1.13-1.13,1.13c-.39,.39-.39,1.02,0,1.41,.2,.2,.45,.29,.71,.29s.51-.1,.71-.29l1.12-1.12v1.74c0,.53,.42,.96,.95,.99,.19,.18,.43,.27,.68,.27s.51-.1,.71-.29l1.24-1.24v1.59c0,.55,.45,1,1,1s1-.45,1-1v-1.59l1.23,1.23c.2,.2,.45,.29,.71,.29,.24,0,.47-.09,.66-.26,.54-.02,.97-.45,.97-.99v-1.76s1.13,1.13,1.13,1.13c.2,.2,.45,.29,.71,.29s.51-.1,.71-.29c.39-.39,.39-1.02,0-1.41l-1.12-1.12h2.66l5.71,2.92s.02,.02,.03,.02c.09,.06,.19,.09,.3,.12,.04,0,.08,.01,.12,.02,.03,0,.07,.01,.1,.01,0,0,0,0,0,0,0,0,0,0,.01,0,.06,0,.11-.01,.17-.02,.02,0,.03,0,.05,0,.12-.03,.23-.07,.33-.14l15.21-7.89c.33-.17,.54-.51,.54-.89V13.91s0,0,0,0c0,0,0,0,0,0ZM8.07,31.36l1.58,1.58h-2.23l-1.57-1.58h2.22Zm0,5.16h-2.23s1.57-1.58,1.57-1.58h2.23l-1.58,1.58Zm2.99,2.07l-1.58,1.57v-2.22l1.58-1.58v2.23Zm0-7.06l-1.58-1.58v-2.23s1.58,1.57,1.58,1.57v2.23Zm2-2.23l1.58-1.57v2.22l-1.58,1.58v-2.23Zm1.57,10.86l-1.57-1.57v-2.23l1.58,1.58v2.23Zm1.41-3.64l-1.58-1.58h2.23l1.57,1.58h-2.23Zm.65-3.58h-2.23l1.58-1.58h2.23s-1.57,1.58-1.57,1.58ZM26.97,7.11l13.15,6.8-2.71,1.41-13.14-6.8,2.7-1.4Zm-4.88,2.52l13.14,6.8-2.83,1.47-13.14-6.81,2.83-1.47Zm14.32,8.44v5.51l-3.03,1.57v-5.51l3.03-1.57Zm-9.43,2.62l-13.15-6.79,3.25-1.68,13.13,6.81-3.23,1.67Zm14.31,11.36l-13.32,6.9V22.44l3.41-1.76v6.13c0,.35,.18,.67,.48,.85,.16,.1,.34,.15,.52,.15,.16,0,.32-.04,.46-.11l5.03-2.61c.33-.17,.54-.51,.54-.89v-7.15l2.88-1.49v16.51Z"/></svg>