<?xml version="1.0" encoding="iso-8859-1"?>
<!-- Uploaded to: SVG Repo, www.svgrepo.com, Generator: SVG Repo Mixer Tools -->
<svg version="1.1" id="Layer_1" xmlns="http://www.w3.org/2000/svg" xmlns:xlink="http://www.w3.org/1999/xlink" 
	 viewBox="0 0 392.589 392.589" xml:space="preserve">
<polygon style="fill:#FFC10D;" points="320.196,21.846 72.406,21.846 29.675,131.099 362.863,131.099 "/>
<g>
	<path style="fill:#194F82;" d="M111.323,223.672H94.968c-6.012,0-10.925-4.848-10.925-10.925s4.848-10.925,10.925-10.925h16.356
		c6.012,0,10.925,4.848,10.925,10.925S117.336,223.672,111.323,223.672z"/>
	<path style="fill:#194F82;" d="M173.449,223.672h-16.356c-6.012,0-10.925-4.848-10.925-10.925s4.848-10.925,10.925-10.925h16.356
		c6.012,0,10.925,4.848,10.925,10.925S179.461,223.672,173.449,223.672z"/>
	<path style="fill:#194F82;" d="M235.509,223.672h-16.356c-6.012,0-10.925-4.848-10.925-10.925s4.848-10.925,10.925-10.925h16.356
		c6.012,0,10.925,4.848,10.925,10.925S241.521,223.672,235.509,223.672z"/>
	<path style="fill:#194F82;" d="M297.635,223.672h-16.356c-6.012,0-10.925-4.848-10.925-10.925s4.849-10.925,10.925-10.925h16.356
		c6.012,0,10.925,4.848,10.925,10.925S303.647,223.672,297.635,223.672z"/>
	<path style="fill:#194F82;" d="M111.323,287.543H94.968c-6.012,0-10.925-4.848-10.925-10.925c0-6.012,4.848-10.925,10.925-10.925
		h16.356c6.012,0,10.925,4.848,10.925,10.925C122.249,282.63,117.336,287.543,111.323,287.543z"/>
	<path style="fill:#194F82;" d="M297.635,287.543h-16.356c-6.012,0-10.925-4.848-10.925-10.925c0-6.012,4.849-10.925,10.925-10.925
		h16.356c6.012,0,10.925,4.848,10.925,10.925C308.56,282.63,303.647,287.543,297.635,287.543z"/>
	<path style="fill:#194F82;" d="M111.323,351.285H94.968c-6.012,0-10.925-4.848-10.925-10.925c0-6.012,4.848-10.925,10.925-10.925
		h16.356c6.012,0,10.925,4.849,10.925,10.925C122.249,346.371,117.336,351.285,111.323,351.285z"/>
	<path style="fill:#194F82;" d="M297.635,351.285h-16.356c-6.012,0-10.925-4.848-10.925-10.925c0-6.012,4.849-10.925,10.925-10.925
		h16.356c6.012,0,10.925,4.849,10.925,10.925C308.56,346.371,303.647,351.285,297.635,351.285z"/>
	<path style="fill:#194F82;" d="M214.887,64.836h-7.758v-7.758c0-6.012-4.848-10.925-10.925-10.925s-10.925,4.848-10.925,10.925
		v7.758h-7.758c-6.012,0-10.925,4.848-10.925,10.925c0,6.012,4.848,10.925,10.925,10.925h7.758v7.758
		c0,6.012,4.848,10.925,10.925,10.925c6.012,0,10.925-4.848,10.925-10.925v-7.758h7.758c6.012,0,10.925-4.848,10.925-10.925
		C225.748,69.685,220.899,64.836,214.887,64.836z"/>
	<path style="fill:#194F82;" d="M390.338,135.43L336.035,5.555c-1.939-3.426-5.56-5.495-9.503-5.495H66.071
		c-3.943,0-7.564,2.069-9.503,5.495L1.424,136.658c-4.267,7.564,1.681,16.549,9.503,16.291h25.471v228.655
		c0,6.012,4.848,10.925,10.925,10.925h297.891c6.012,0,10.925-4.848,10.925-10.925v-228.59h25.471h0.065
		C392.018,152.432,395.251,142.089,390.338,135.43z M221.287,370.679h-50.101v-83.135h50.101V370.679z M334.354,370.679h-91.152
		v-94.061c0-6.012-4.848-10.925-10.925-10.925H160.39c-6.012,0-10.925,4.848-10.925,10.925v94.125H58.313V153.014h276.105v217.665
		L334.354,370.679L334.354,370.679z M29.675,131.099L72.406,21.846h247.79l42.667,109.317H29.675V131.099z"/>
</g>
<path style="fill:#FFFFFF;" d="M58.249,370.679H149.4v-94.061c0-6.012,4.848-10.925,10.925-10.925h71.887
	c6.012,0,10.925,4.848,10.925,10.925v94.125h91.152V153.014H58.249L58.249,370.679L58.249,370.679z"/>
<rect x="171.251" y="287.543" style="fill:#56ACE0;" width="50.101" height="83.135"/>
<g>
	<path style="fill:#194F82;" d="M94.968,223.672h16.356c6.012,0,10.925-4.848,10.925-10.925c0-6.012-4.848-10.925-10.925-10.925
		H94.968c-6.012,0-10.925,4.848-10.925,10.925S88.956,223.672,94.968,223.672z"/>
	<path style="fill:#194F82;" d="M157.029,223.672h16.356c6.012,0,10.925-4.848,10.925-10.925c0-6.012-4.848-10.925-10.925-10.925
		h-16.356c-6.012,0-10.925,4.848-10.925,10.925S150.952,223.672,157.029,223.672z"/>
	<path style="fill:#194F82;" d="M219.154,223.672h16.356c6.012,0,10.925-4.848,10.925-10.925c0-6.012-4.848-10.925-10.925-10.925
		h-16.356c-6.012,0-10.925,4.848-10.925,10.925S213.077,223.672,219.154,223.672z"/>
	<path style="fill:#194F82;" d="M281.15,223.672h16.356c6.012,0,10.925-4.848,10.925-10.925c0-6.012-4.848-10.925-10.925-10.925
		H281.15c-6.012,0-10.925,4.848-10.925,10.925C270.289,218.824,275.202,223.672,281.15,223.672z"/>
	<path style="fill:#194F82;" d="M94.968,287.543h16.356c6.012,0,10.925-4.848,10.925-10.925c0-6.012-4.848-10.925-10.925-10.925
		H94.968c-6.012,0-10.925,4.848-10.925,10.925C84.043,282.63,88.956,287.543,94.968,287.543z"/>
	<path style="fill:#194F82;" d="M281.15,287.543h16.356c6.012,0,10.925-4.848,10.925-10.925c0-6.012-4.848-10.925-10.925-10.925
		H281.15c-6.012,0-10.925,4.848-10.925,10.925C270.289,282.63,275.202,287.543,281.15,287.543z"/>
	<path style="fill:#194F82;" d="M94.968,351.285h16.356c6.012,0,10.925-4.848,10.925-10.925c0-6.012-4.848-10.925-10.925-10.925
		H94.968c-6.012,0-10.925,4.849-10.925,10.925C84.043,346.371,88.956,351.285,94.968,351.285z"/>
	<path style="fill:#194F82;" d="M281.15,351.285h16.356c6.012,0,10.925-4.848,10.925-10.925c0-6.012-4.848-10.925-10.925-10.925
		H281.15c-6.012,0-10.925,4.849-10.925,10.925C270.289,346.371,275.202,351.285,281.15,351.285z"/>
</g>
</svg>