<svg xmlns="http://www.w3.org/2000/svg" xmlns:xlink="http://www.w3.org/1999/xlink" xmlns:serif="http://www.serif.com/" viewBox="0 0 64 80" version="1.1" xml:space="preserve" style="" x="0px" y="0px" fill-rule="evenodd" clip-rule="evenodd" stroke-linejoin="round" stroke-miterlimit="2"><g><path d="M3,47L3,12C3,10.343 4.343,9 6,9L35,9C36.657,9 38,10.343 38,12L38,17L48.172,17C48.967,17 49.73,17.316 50.293,17.879L60.121,27.707C60.684,28.27 61,29.033 61,29.828L61,47C61,47.796 60.684,48.559 60.121,49.121C59.559,49.684 58.796,50 58,50L54.917,50C54.44,52.836 51.971,55 49,55C46.029,55 43.56,52.836 43.083,50L20.917,50C20.44,52.836 17.971,55 15,55C12.029,55 9.56,52.836 9.083,50L6,50C5.204,50 4.441,49.684 3.879,49.121C3.316,48.559 3,47.796 3,47ZM36,37L36,12C36,11.448 35.552,11 35,11L6,11C5.448,11 5,11.448 5,12L5,38L35,38C35.552,38 36,37.552 36,37ZM54.917,48L58,48C58.265,48 58.52,47.895 58.707,47.708C58.895,47.52 59,47.265 59,47L59,29.828C59,29.563 58.895,29.309 58.707,29.121L48.879,19.293C48.691,19.105 48.437,19 48.172,19L38,19L38,37C38,38.657 36.657,40 35,40L5,40L5,47C5,47.265 5.105,47.52 5.293,47.708C5.48,47.895 5.735,48 6,48L9.083,48C9.56,45.164 12.029,43 15,43C17.971,43 20.44,45.164 20.917,48L43.083,48C43.56,45.164 46.029,43 49,43C51.971,43 54.44,45.164 54.917,48ZM45,49C45,51.208 46.792,53 49,53C51.208,53 53,51.208 53,49C53,46.792 51.208,45 49,45C46.792,45 45,46.792 45,49ZM11,49C11,51.208 12.792,53 15,53C17.208,53 19,51.208 19,49C19,46.792 17.208,45 15,45C12.792,45 11,46.792 11,49ZM13.414,25L11.707,26.707C11.317,27.097 10.683,27.097 10.293,26.707C9.903,26.317 9.903,25.683 10.293,25.293L11.586,24L10.293,22.707C9.903,22.317 9.903,21.683 10.293,21.293C10.683,20.903 11.317,20.903 11.707,21.293L13.414,23L18.586,23L14.929,19.343L12.515,19.343C11.963,19.343 11.515,18.895 11.515,18.343C11.515,17.791 11.963,17.343 12.515,17.343L14.343,17.343L14.343,15.515C14.343,14.963 14.791,14.515 15.343,14.515C15.895,14.515 16.343,14.963 16.343,15.515L16.343,17.929L20,21.586L20,16.414L18.293,14.707C17.903,14.317 17.903,13.683 18.293,13.293C18.683,12.903 19.317,12.903 19.707,13.293L21,14.586L22.293,13.293C22.683,12.903 23.317,12.903 23.707,13.293C24.097,13.683 24.097,14.317 23.707,14.707L22,16.414L22,21.586L25.657,17.929L25.657,15.515C25.657,14.963 26.105,14.515 26.657,14.515C27.209,14.515 27.657,14.963 27.657,15.515L27.657,17.343L29.485,17.343C30.037,17.343 30.485,17.791 30.485,18.343C30.485,18.895 30.037,19.343 29.485,19.343L27.071,19.343L23.414,23L28.586,23L30.293,21.293C30.683,20.903 31.317,20.903 31.707,21.293C32.097,21.683 32.097,22.317 31.707,22.707L30.414,24L31.707,25.293C32.097,25.683 32.097,26.317 31.707,26.707C31.317,27.097 30.683,27.097 30.293,26.707L28.586,25L23.414,25L27.071,28.657L29.485,28.657C30.037,28.657 30.485,29.105 30.485,29.657C30.485,30.209 30.037,30.657 29.485,30.657L27.657,30.657L27.657,32.485C27.657,33.037 27.209,33.485 26.657,33.485C26.105,33.485 25.657,33.037 25.657,32.485L25.657,30.071L22,26.414L22,31.586L23.707,33.293C24.097,33.683 24.097,34.317 23.707,34.707C23.317,35.097 22.683,35.097 22.293,34.707L21,33.414L19.707,34.707C19.317,35.097 18.683,35.097 18.293,34.707C17.903,34.317 17.903,33.683 18.293,33.293L20,31.586L20,26.414L16.343,30.071L16.343,32.485C16.343,33.037 15.895,33.485 15.343,33.485C14.791,33.485 14.343,33.037 14.343,32.485L14.343,30.657L12.515,30.657C11.963,30.657 11.515,30.209 11.515,29.657C11.515,29.105 11.963,28.657 12.515,28.657L14.929,28.657L18.586,25L13.414,25ZM15,47C16.104,47 17,47.896 17,49C17,50.104 16.104,51 15,51C13.896,51 13,50.104 13,49C13,47.896 13.896,47 15,47ZM49,47C50.104,47 51,47.896 51,49C51,50.104 50.104,51 49,51C47.896,51 47,50.104 47,49C47,47.896 47.896,47 49,47ZM43,36C41.343,36 40,34.657 40,33L40,24C40,22.343 41.343,21 43,21L46.515,21C47.31,21 48.073,21.316 48.636,21.879L56.121,29.364C56.684,29.927 57,30.69 57,31.485L57,33C57,33.796 56.684,34.559 56.121,35.121C55.559,35.684 54.796,36 54,36L43,36ZM43,34L54,34C54.265,34 54.52,33.895 54.707,33.707C54.895,33.52 55,33.265 55,33L55,31.485C55,31.22 54.895,30.966 54.707,30.778L47.222,23.293C47.034,23.105 46.78,23 46.515,23L43,23C42.448,23 42,23.448 42,24L42,33C42,33.552 42.448,34 43,34Z"/></g><text x="0" y="79" fill="#000000" font-size="5px" font-weight="bold" font-family="'Helvetica Neue', Helvetica, Arial-Unicode, Arial, Sans-serif">Created by Blangcon</text><text x="0" y="84" fill="#000000" font-size="5px" font-weight="bold" font-family="'Helvetica Neue', Helvetica, Arial-Unicode, Arial, Sans-serif">from the Noun Project</text></svg>