<svg xmlns="http://www.w3.org/2000/svg" xmlns:xlink="http://www.w3.org/1999/xlink" version="1.1" x="0px" y="0px" viewBox="0 0 64 80" style="enable-background:new 0 0 64 64;" xml:space="preserve"><path d="M35.275,15.32c-0.081,0.086-0.148,0.183-0.194,0.292c-0.008,0.019-0.01,0.039-0.017,0.058  c-0.022,0.061-0.045,0.122-0.054,0.188l-0.953,6.671l-1.764,1.764l1.414,1.414l1.764-1.764l6.67-0.953  c0.065-0.009,0.124-0.032,0.185-0.053c0.021-0.007,0.042-0.009,0.062-0.018c0.109-0.046,0.205-0.113,0.291-0.193  c0.008-0.008,0.019-0.01,0.027-0.018L51,14.414l1.293,1.293l1.414-1.414l-2-2L51.414,12l1.126-1.126l2.776-0.925  c0.329-0.11,0.577-0.382,0.657-0.719c0.079-0.337-0.021-0.692-0.267-0.937l-6-6c-0.245-0.245-0.599-0.346-0.937-0.266  c-0.338,0.08-0.609,0.328-0.719,0.657L47.126,5.46L46,6.586l-0.293-0.293l-2-2l-1.414,1.414L43.586,7l-8.293,8.293  C35.285,15.301,35.283,15.312,35.275,15.32z M36.179,21.821l0.528-3.7l3.172,3.172L36.179,21.821z M48.707,6.707  c0.109-0.11,0.192-0.244,0.241-0.391l0.489-1.465l3.711,3.712l-1.465,0.488c-0.147,0.049-0.281,0.132-0.391,0.242L50,10.586  L47.414,8L48.707,6.707z M45,8.414l0.293,0.293l4,4L49.586,13L48,14.586l-1.293-1.293l-1.414,1.414L46.586,16L45,17.586  l-1.293-1.293l-1.414,1.414L43.586,19L42,20.586L37.414,16L45,8.414z"/><path d="M7.707,35.707l1.939-1.939L9.117,38H8c-0.553,0-1,0.448-1,1v2.75c0,0.08,0.01,0.159,0.028,0.236l0.44,1.813  c-2.051,1.771-2.678,5.657-2.407,8.303c0.417,4.053,3.063,5.55,4.563,6.282c-0.185,0.484-0.24,1.014-0.153,1.549  c0.156,0.964,0.747,1.767,1.62,2.203l0.447-0.895l-0.376,0.931c0.424,0.211,0.88,0.313,1.333,0.313c0.892,0,1.77-0.395,2.352-1.123  l2.99-3.737c0.318-0.397,0.286-0.971-0.074-1.332l-0.854-0.855l-1.644-4.109c0.115-0.099,0.234-0.211,0.353-0.329h6.82  c0.12,0.118,0.238,0.23,0.353,0.329l-1.644,4.109l-0.854,0.855c-0.36,0.36-0.393,0.934-0.074,1.332l2.99,3.737  c0.582,0.728,1.46,1.123,2.352,1.123c0.453,0,0.909-0.102,1.333-0.313l0.072-0.036c0.873-0.437,1.463-1.239,1.619-2.203  c0.086-0.532,0.031-1.059-0.157-1.547c1.5-0.731,4.15-2.227,4.567-6.283c0.252-2.46-0.273-5.991-1.995-7.899V39c0-0.552-0.447-1-1-1  h-1.117l-0.529-4.232l1.939,1.939c1.492,1.493,3.922,1.493,5.414,0c1.493-1.493,1.493-3.921,0-5.414l-3.601-3.601  c-2.372-2.372-5.375-3.917-8.684-4.468L23,22.153v-0.98c2.608-1.131,4.654-3.345,5.535-6.173H29c1.654,0,3-1.346,3-3s-1.346-3-3-3  h-0.465C27.238,4.84,23.425,2,19,2s-8.238,2.84-9.535,7H9c-1.654,0-3,1.346-3,3s1.346,3,3,3h0.465  c0.881,2.827,2.927,5.042,5.535,6.173v0.98l-0.423,0.071c-3.309,0.551-6.312,2.096-8.684,4.468l-3.601,3.601  c-1.493,1.493-1.493,3.921,0,5.414C3.785,37.2,6.215,37.2,7.707,35.707z M15.349,56.707l0.367,0.367l-2.432,3.039  c-0.292,0.365-0.81,0.479-1.223,0.272l-0.071-0.036c-0.002-0.001-0.004-0.001-0.005-0.002c-0.291-0.146-0.488-0.413-0.54-0.734  c-0.053-0.321,0.05-0.637,0.317-0.905c0.208-0.208,0.313-0.496,0.29-0.788c-0.024-0.292-0.175-0.56-0.413-0.731  c-0.236-0.169-0.534-0.312-0.88-0.477c-1.346-0.644-3.381-1.617-3.709-4.813c-0.285-2.78,0.575-6.269,2.263-6.922  c0.022-0.009,0.042-0.021,0.064-0.029c0.159-0.054,0.313-0.072,0.479-0.076c0.034-0.001,0.066-0.004,0.101-0.003  c0.088,0.002,0.185,0.011,0.287,0.022c0.044,0.005,0.083,0.007,0.131,0.014c0.151,0.021,0.314,0.048,0.508,0.082  c1.71,0.297,4.179,1.541,4.172,3.01c-0.001,0.12-0.02,0.238-0.05,0.353c-0.013,0.051-0.035,0.103-0.054,0.154  c-0.023,0.063-0.044,0.127-0.074,0.188c-0.033,0.069-0.075,0.139-0.118,0.209c-0.025,0.041-0.048,0.083-0.076,0.123  c-0.061,0.09-0.132,0.18-0.209,0.271c-0.361,0.425-0.79,0.747-0.986,0.881c-0.386,0.265-0.537,0.762-0.363,1.197l2,5  C15.178,56.497,15.253,56.611,15.349,56.707z M31.005,51.898c-0.328,3.196-2.363,4.169-3.709,4.813  c-0.346,0.165-0.644,0.308-0.88,0.477c-0.238,0.171-0.37,0.458-0.394,0.75s0.101,0.6,0.309,0.807  c0.229,0.23,0.332,0.546,0.279,0.867c-0.052,0.321-0.248,0.589-0.539,0.734l-0.072,0.036c-0.418,0.21-0.936,0.098-1.228-0.27  l-2.432-3.039l0.367-0.367c0.096-0.096,0.171-0.21,0.222-0.335l2-5c0.174-0.435,0.022-0.932-0.363-1.197  c-0.196-0.134-0.625-0.456-0.986-0.881c-0.077-0.091-0.147-0.181-0.209-0.271c-0.028-0.04-0.051-0.083-0.076-0.124  c-0.043-0.07-0.084-0.139-0.117-0.208c-0.029-0.061-0.051-0.125-0.074-0.189c-0.018-0.051-0.041-0.103-0.054-0.154  c-0.03-0.116-0.049-0.233-0.05-0.353c-0.007-1.469,2.462-2.712,4.172-3.01c0.724-0.126,1.09-0.179,1.506-0.039  c0.221,0.075,0.436,0.207,0.657,0.405c0.005,0.005,0.012,0.007,0.018,0.012C30.632,46.52,31.253,49.477,31.005,51.898z M29,42.96  c-0.079-0.019-0.153-0.023-0.23-0.036c-0.067-0.011-0.135-0.024-0.201-0.031c-0.159-0.018-0.316-0.025-0.47-0.022  c-0.039,0.001-0.079-0.002-0.118,0c-0.177,0.007-0.352,0.023-0.526,0.047c-0.018,0.002-0.037,0.003-0.056,0.006  c-0.19,0.027-0.38,0.059-0.572,0.092c-2.261,0.394-5.843,2.096-5.828,4.99c0.001,0.177,0.017,0.353,0.045,0.527  c0.007,0.044,0.02,0.084,0.029,0.127c0.023,0.114,0.043,0.228,0.077,0.341h-4.247c0.034-0.113,0.055-0.227,0.077-0.341  c0.009-0.043,0.022-0.083,0.029-0.127c0.028-0.175,0.044-0.35,0.045-0.527c0.015-2.894-3.567-4.597-5.828-4.99  c-0.18-0.031-0.359-0.061-0.537-0.086c-0.047-0.007-0.096-0.011-0.143-0.017c-0.14-0.018-0.28-0.03-0.422-0.037  c-0.057-0.003-0.115-0.005-0.173-0.006c-0.146-0.002-0.294,0.007-0.445,0.022c-0.048,0.005-0.094,0.006-0.143,0.013  c-0.019,0.003-0.037,0.002-0.057,0.005L9,41.63V40h1h18h1V42.96z M11.206,13.778C11.102,13.323,10.697,13,10.23,13H9  c-0.552,0-1-0.449-1-1s0.448-1,1-1h1.23c0.467,0,0.872-0.323,0.976-0.778c0.685-3.011,2.973-5.272,5.851-5.983  c-0.055,0.278-0.077,0.563-0.054,0.844c0.101,1.215,1.04,2.708,4.944,2.916l0.105-1.997c-1.81-0.097-3.01-0.522-3.056-1.083  c-0.031-0.378,0.147-0.723,0.312-0.905c3.621,0.137,6.675,2.647,7.485,6.209C26.897,10.677,27.303,11,27.77,11H29  c0.552,0,1,0.449,1,1s-0.448,1-1,1h-1.23c-0.467,0-0.871,0.323-0.976,0.778c-0.598,2.631-2.423,4.686-4.794,5.638  c-0.128,0-0.255,0.017-0.377,0.067c-1.686,0.686-3.561,0.686-5.246,0c-0.121-0.049-0.249-0.066-0.376-0.066  C13.63,18.464,11.804,16.409,11.206,13.778z M3.707,31.707l3.601-3.601c2.076-2.075,4.703-3.427,7.598-3.91l1.259-0.21  C16.646,23.906,17,23.489,17,23v-1.206C17.648,21.924,18.315,22,19,22s1.352-0.076,2-0.206V23c0,0.489,0.354,0.906,0.836,0.986  l1.259,0.21c2.895,0.482,5.521,1.834,7.598,3.91l3.601,3.601c0.713,0.713,0.713,1.873,0,2.586s-1.873,0.713-2.586,0l-4-4  c-0.302-0.302-0.765-0.377-1.146-0.191c-0.384,0.188-0.605,0.599-0.553,1.022L26.867,38H11.133l0.859-6.876  c0.053-0.424-0.169-0.834-0.553-1.022c-0.381-0.186-0.844-0.111-1.146,0.191l-4,4c-0.713,0.713-1.873,0.713-2.586,0  S2.994,32.42,3.707,31.707z"/><path d="M19,18c0.747,0,2.208-0.156,3.6-1.2L21.4,15.2C20.472,15.896,19.498,16,19,16c-1.16,0-2.002-0.501-2.4-0.8L15.4,16.8  C15.997,17.248,17.26,18,19,18z"/><path d="M58,47V37v-1.528c0-1.906-1.059-3.62-2.764-4.472L54,30.382V29h1c1.103,0,2-0.897,2-2v-2c0-1.103-0.897-2-2-2H45  c-1.103,0-2,0.897-2,2v2c0,1.103,0.897,2,2,2h1v1.382L44.764,31C43.059,31.853,42,33.566,42,35.472V37v10v1.464  c-3.177,1.309-5,3.297-5,5.536c0,3.925,5.71,7,13,7s13-3.075,13-7c0-2.24-1.823-4.227-5-5.536V47z M44,49.133V48h12v1.133V51  c0,1.654-1.346,3-3,3h-6c-1.654,0-3-1.346-3-3V49.133z M44,38h12v8H44V38z M45,25h10l0.001,2H53h-6h-2V25z M45.658,32.789  l1.789-0.895C47.786,31.725,48,31.379,48,31v-2h4v2c0,0.379,0.214,0.725,0.553,0.895l1.789,0.895C55.364,33.3,56,34.329,56,35.472  V36H44v-0.528C44,34.329,44.636,33.3,45.658,32.789z M61,54c0,2.365-4.518,5-11,5s-11-2.635-11-5c0-1.196,1.119-2.424,3-3.358V51  c0,2.757,2.243,5,5,5h6c2.757,0,5-2.243,5-5v-0.358C59.881,51.576,61,52.804,61,54z"/><polygon points="51,39 49,39 49,41 47,41 47,43 49,43 49,45 51,45 51,43 53,43 53,41 51,41 "/><rect x="14" y="11" width="2" height="2"/><rect x="22" y="11" width="2" height="2"/><text x="0" y="79" fill="#000000" font-size="5px" font-weight="bold" font-family="'Helvetica Neue', Helvetica, Arial-Unicode, Arial, Sans-serif">Created by Becris</text><text x="0" y="84" fill="#000000" font-size="5px" font-weight="bold" font-family="'Helvetica Neue', Helvetica, Arial-Unicode, Arial, Sans-serif">from the Noun Project</text></svg>